<svg width="24" height="24" viewBox="0 0 24 24" fill="none" xmlns="http://www.w3.org/2000/svg">
<path d="M24 12.0444C24 5.3928 18.6276 0 12 0C5.3724 0 0 5.3928 0 12.0444C0 17.6928 3.8748 22.4316 9.1008 23.7336V15.7248H6.6264V12.0444H9.1008V10.458C9.1008 6.3588 10.9488 4.458 14.9592 4.458C15.72 4.458 17.0316 4.608 17.568 4.758V8.094C17.1069 8.05835 16.6444 8.04354 16.182 8.0496C14.214 8.0496 13.4544 8.7972 13.4544 10.7424V12.0444H17.3736L16.7016 15.7248H13.4544V24C19.3968 23.28 24 18.2016 24 12.0444Z" fill="#0064E0"/>
</svg>
